<svg width="24" height="24" viewBox="0 0 24 24" fill="none" xmlns="http://www.w3.org/2000/svg">
<circle cx="12" cy="12" r="12" fill="#FA5711" fill-opacity="0.15"/>
<mask id="mask0_21_67" style="mask-type:alpha" maskUnits="userSpaceOnUse" x="4" y="4" width="16" height="16">
<rect x="4" y="4" width="16" height="16" fill="#D9D9D9"/>
</mask>
<g mask="url(#mask0_21_67)">
<path d="M11.9999 18.3847C11.6632 18.3847 11.3728 18.2681 11.1288 18.0347C10.8847 17.8014 10.752 17.5164 10.7307 17.1796H13.2691C13.2478 17.5164 13.1151 17.8014 12.8711 18.0347C12.627 18.2681 12.3366 18.3847 11.9999 18.3847ZM9.9999 16.2565C9.85802 16.2565 9.73922 16.2086 9.6435 16.1129C9.54778 16.0172 9.49992 15.8984 9.49992 15.7565C9.49992 15.6146 9.54778 15.4958 9.6435 15.4001C9.73922 15.3044 9.85802 15.2565 9.9999 15.2565H13.9999C14.1418 15.2565 14.2606 15.3044 14.3563 15.4001C14.452 15.4958 14.4999 15.6146 14.4999 15.7565C14.4999 15.8984 14.452 16.0172 14.3563 16.1129C14.2606 16.2086 14.1418 16.2565 13.9999 16.2565H9.9999ZM9.60247 14.3334C8.90419 13.8993 8.35142 13.3319 7.94415 12.6315C7.53689 11.9311 7.33325 11.1651 7.33325 10.3335C7.33325 9.03433 7.78624 7.93177 8.69222 7.02578C9.59821 6.1198 10.7008 5.66681 11.9999 5.66681C13.299 5.66681 14.4016 6.1198 15.3076 7.02578C16.2136 7.93177 16.6666 9.03433 16.6666 10.3335C16.6666 11.1651 16.4629 11.9311 16.0557 12.6315C15.6484 13.3319 15.0956 13.8993 14.3973 14.3334H9.60247ZM9.8999 13.3335H14.0999C14.5999 12.9779 14.986 12.539 15.2582 12.0168C15.5305 11.4946 15.6666 10.9335 15.6666 10.3335C15.6666 9.31124 15.311 8.44457 14.5999 7.73346C13.8888 7.02235 13.0221 6.66679 11.9999 6.66679C10.9777 6.66679 10.111 7.02235 9.3999 7.73346C8.68879 8.44457 8.33324 9.31124 8.33324 10.3335C8.33324 10.9335 8.46935 11.4946 8.74157 12.0168C9.01379 12.539 9.3999 12.9779 9.8999 13.3335Z" fill="#FA5711"/>
</g>
</svg>
